<svg id='Check_Circle_1_Alternate_24' width='24' height='24' viewBox='0 0 24 24'
    xmlns='http://www.w3.org/2000/svg' xmlns:xlink='http://www.w3.org/1999/xlink'>
    <rect width='24' height='24' stroke='none' fill='#000000' opacity='0' />


    <g transform="matrix(0.83 0 0 0.83 12 12)">
        <g style="">
            <g transform="matrix(1 0 0 1 -0.04 0)">
                <path
                    style="stroke: none; stroke-width: 1; stroke-dasharray: none; stroke-linecap: butt; stroke-dashoffset: 0; stroke-linejoin: miter; stroke-miterlimit: 4; fill: rgb(255,255,255); fill-rule: nonzero; opacity: 1;"
                    transform=" translate(-11.96, -12)"
                    d="M 18.48 6.45 C 17.923676424973436 6.043691256243126 17.144169680849913 6.159503686798621 16.73 6.71 L 10.81 14.71 L 7 11.74 C 6.654258225532939 11.435585919982447 6.169108361008278 11.346002977021309 5.737452315803167 11.506870516824863 C 5.305796270598055 11.667738056628416 4.997602163427297 12.052980690591863 4.935411988176171 12.509420926358604 C 4.8732218129250455 12.965861162125346 5.067116117782788 13.419513554670132 5.439999999999999 13.689999999999998 L 10.219999999999999 17.52 C 10.487495029999621 17.730074518114638 10.828557736505626 17.823082510886866 11.165665963239942 17.77788364249791 C 11.502774189974255 17.73268477410895 11.807290650295943 17.553118680756473 12.009999999999998 17.28 L 18.74 8.2 C 18.937853233690642 7.933552064332074 19.021626853732855 7.599360903097392 18.972855189497956 7.271090086131732 C 18.924083525263057 6.942819269166073 18.74677047731316 6.647418127175933 18.48 6.45 Z"
                    stroke-linecap="round" />
            </g>
            <g transform="matrix(1 0 0 1 0 0)">
                <path
                    style="stroke: none; stroke-width: 1; stroke-dasharray: none; stroke-linecap: butt; stroke-dashoffset: 0; stroke-linejoin: miter; stroke-miterlimit: 4; fill: rgb(255,255,255); fill-rule: nonzero; opacity: 1;"
                    transform=" translate(-12, -12)"
                    d="M 12 0 C 5.372583002030479 0 0 5.372583002030479 0 12 C 0 18.627416997969522 5.372583002030479 24 12 24 C 18.627416997969522 24 24 18.627416997969522 24 12 C 24 5.372583002030479 18.627416997969522 0 12 0 Z M 12 22 C 6.477152501692066 22 2 17.522847498307932 2 12 C 2 6.477152501692066 6.477152501692066 2 12 2 C 17.522847498307932 2 22 6.477152501692064 22 11.999999999999998 C 22 17.522847498307932 17.522847498307932 22 12 22 Z"
                    stroke-linecap="round" />
            </g>
        </g>
    </g>
</svg>